<svg width="32" height="32" viewBox="0 0 32 32" fill="none" xmlns="http://www.w3.org/2000/svg">
<path d="M14.0222 4.38946C14.9507 2.9549 17.0497 2.95491 17.9781 4.38947L18.8218 5.69298C19.3532 6.51411 20.3367 6.92149 21.2932 6.71666L22.8114 6.39149C24.4824 6.03364 25.9666 7.51784 25.6087 9.18876L25.2835 10.707C25.0787 11.6635 25.4861 12.647 26.3072 13.1784L27.6107 14.0221C29.0453 14.9506 29.0453 17.0495 27.6107 17.978L26.3072 18.8217C25.4861 19.3531 25.0787 20.3366 25.2835 21.293L25.6087 22.8113C25.9666 24.4822 24.4824 25.9664 22.8114 25.6086L21.2932 25.2834C20.3367 25.0786 19.3532 25.486 18.8218 26.3071L17.9781 27.6106C17.0497 29.0452 14.9507 29.0452 14.0222 27.6106L13.1785 26.3071C12.6471 25.486 11.6636 25.0786 10.7072 25.2834L9.18888 25.6086C7.51796 25.9664 6.03376 24.4822 6.39161 22.8113L6.71678 21.293C6.92161 20.3366 6.51423 19.3531 5.6931 18.8217L4.38959 17.978C2.95503 17.0495 2.95503 14.9506 4.38959 14.0221L5.6931 13.1784C6.51423 12.647 6.92161 11.6635 6.71678 10.707L6.39161 9.18875C6.03376 7.51784 7.51796 6.03364 9.18888 6.39149L10.7072 6.71666C11.6636 6.92149 12.6471 6.51411 13.1785 5.69298L14.0222 4.38946Z" stroke="#949494" stroke-width="2"/>
<circle cx="16" cy="16" r="4" stroke="#949494" stroke-width="2"/>
</svg>
